<?xml version="1.0" standalone="no"?>
<!DOCTYPE svg PUBLIC "-//W3C//DTD SVG 20010904//EN"
 "http://www.w3.org/TR/2001/REC-SVG-20010904/DTD/svg10.dtd">
<svg version="1.0" xmlns="http://www.w3.org/2000/svg"
 width="460.000000pt" height="460.000000pt" viewBox="0 0 460.000000 460.000000"
 preserveAspectRatio="xMidYMid meet">

<g transform="translate(0.000000,460.000000) scale(0.100000,-0.100000)"
fill="#000000" stroke="none">
<path d="M535 4158 c-5 -14 -33 -166 -59 -313 -35 -201 -47 -551 -26 -753 15
-137 65 -332 111 -430 l39 -84 -44 -91 c-103 -215 -141 -305 -196 -464 l-39
-111 33 -94 c108 -299 273 -549 517 -782 62 -59 129 -119 148 -132 20 -13 45
-30 55 -38 26 -21 29 -17 -180 -176 -55 -41 -127 -97 -161 -125 -34 -27 -87
-70 -118 -94 -57 -45 -65 -60 -41 -80 10 -8 28 1 81 42 37 28 77 59 89 67 12
8 53 40 91 71 71 56 206 161 274 212 l37 28 47 -26 c26 -15 45 -30 43 -33 -2
-4 -36 -32 -76 -62 -39 -30 -104 -81 -143 -113 -120 -96 -141 -112 -177 -137
-41 -28 -50 -39 -50 -61 0 -51 37 -26 395 256 122 96 103 91 187 52 258 -123
459 -177 740 -199 164 -12 375 -1 528 28 163 30 378 101 507 167 29 15 58 27
65 27 8 0 34 -17 60 -37 25 -21 81 -65 123 -98 43 -33 119 -93 169 -133 113
-90 158 -106 142 -50 -4 13 -34 43 -66 68 -33 25 -98 74 -144 110 -46 36 -107
83 -136 105 -106 81 -100 68 -48 99 24 14 49 26 55 26 5 0 27 -15 49 -33 21
-19 55 -44 75 -58 19 -13 64 -48 100 -77 151 -123 324 -252 333 -249 6 2 12
13 14 25 3 22 -15 42 -97 103 -20 15 -74 57 -121 93 -47 37 -127 99 -178 139
-52 40 -101 78 -110 85 -16 12 -16 14 1 23 30 17 187 152 258 221 199 193 390
491 478 745 l31 93 -26 82 c-38 116 -101 271 -174 425 l-62 131 40 89 c86 188
119 351 129 628 9 251 -15 509 -75 803 -10 50 -21 94 -24 97 -8 9 -208 -31
-323 -64 -181 -52 -340 -124 -474 -216 -40 -27 -84 -57 -97 -66 -13 -9 -43
-34 -67 -56 l-44 -41 -69 45 c-150 97 -331 174 -469 198 -153 26 -386 16 -510
-24 -117 -37 -270 -110 -362 -172 -23 -16 -45 -29 -49 -29 -4 0 -26 15 -49 34
-108 89 -174 134 -290 196 -153 82 -358 152 -540 184 -109 19 -124 20 -130 4z
m228 -118 c249 -62 459 -162 635 -304 l63 -50 -48 -40 c-209 -175 -484 -500
-627 -739 -10 -18 -29 -48 -41 -67 -12 -19 -37 -61 -56 -92 -18 -32 -36 -58
-39 -58 -8 0 -56 135 -73 205 -40 164 -49 269 -44 518 4 193 10 276 31 410 31
203 42 247 62 247 8 0 69 -14 137 -30z m3181 13 c3 -10 20 -108 38 -218 31
-191 32 -213 32 -475 0 -264 -1 -280 -28 -405 -35 -163 -83 -290 -102 -274 -8
6 -14 16 -14 21 0 5 -8 21 -19 36 -10 15 -31 49 -47 76 -88 151 -284 427 -344
486 -3 3 -18 21 -34 40 -50 62 -219 231 -278 278 -32 25 -58 50 -58 57 0 6 33
36 72 66 199 149 376 232 633 295 158 39 143 38 149 17z m-1544 -168 c72 -7
241 -60 322 -101 192 -96 395 -256 566 -444 103 -113 138 -159 299 -379 58
-80 181 -290 273 -466 95 -181 220 -478 235 -557 15 -82 -103 -334 -272 -578
-95 -137 -322 -358 -456 -443 -28 -18 -29 -18 -60 7 -43 34 -241 188 -300 234
-27 20 -60 47 -74 60 -30 27 -47 24 -51 -9 -2 -19 9 -33 49 -64 28 -22 68 -53
89 -70 39 -31 201 -155 246 -189 l26 -19 -46 -28 c-25 -16 -48 -29 -51 -29 -5
0 -39 25 -150 110 -129 98 -205 157 -235 182 -19 16 -39 32 -45 36 -5 4 -27
20 -47 36 -21 16 -44 26 -53 22 -27 -10 -16 -44 24 -73 35 -26 81 -60 254
-196 34 -27 90 -69 124 -95 35 -26 63 -49 63 -52 0 -3 -26 -17 -58 -32 -310
-144 -664 -203 -1013 -167 -122 12 -349 65 -467 109 -92 34 -216 89 -211 95 9
8 232 184 279 220 155 118 201 158 198 174 -6 31 -38 21 -110 -34 -40 -31 -95
-74 -123 -95 -27 -21 -90 -70 -140 -109 -49 -39 -107 -83 -128 -98 l-39 -27
-44 24 c-24 14 -44 28 -44 32 0 4 17 19 38 35 20 15 51 39 68 53 17 14 44 35
60 47 136 103 234 186 234 197 0 8 -6 19 -14 25 -11 9 -37 -7 -126 -76 -62
-49 -124 -97 -139 -108 -14 -11 -59 -46 -100 -78 -41 -32 -80 -56 -87 -53 -20
8 -128 93 -198 156 -215 194 -370 409 -480 663 -65 151 -69 168 -56 219 14 49
84 230 130 333 47 104 170 346 191 377 11 14 19 28 19 31 0 9 91 156 149 243
175 259 367 476 565 641 l39 33 43 -68 c23 -37 68 -107 99 -157 32 -49 76
-119 98 -155 40 -65 53 -86 119 -190 19 -30 59 -94 89 -141 40 -65 57 -85 71
-81 12 3 16 11 13 26 -2 11 -16 84 -30 161 -14 77 -39 210 -55 295 -16 85 -39
209 -50 275 -11 66 -24 136 -30 155 -16 56 -13 88 11 95 11 4 22 5 24 3 1 -1
10 -32 18 -68 9 -36 32 -123 52 -195 19 -71 48 -179 64 -240 68 -260 112 -419
116 -423 2 -2 11 -2 18 1 11 4 16 33 21 104 4 54 11 134 16 178 5 44 19 199
30 345 28 380 27 371 53 366 12 -3 51 -8 87 -11z"/>
<path d="M1305 2244 c-11 -2 -46 -10 -77 -16 -67 -14 -66 -12 -75 -154 -12
-196 41 -338 161 -430 57 -43 92 -58 187 -80 80 -18 248 -16 284 4 16 8 24 29
35 89 42 229 -15 425 -149 514 -25 16 -76 38 -113 50 -66 19 -212 33 -253 23z
m209 -115 c36 -10 38 -12 20 -21 -112 -60 -134 -203 -44 -289 56 -53 124 -63
199 -29 l44 20 -7 -72 c-4 -40 -12 -76 -19 -81 -18 -12 -185 0 -237 18 -96 34
-174 114 -202 208 -18 63 -17 235 2 247 21 13 196 12 244 -1z"/>
<path d="M3105 2243 c-50 -6 -148 -34 -185 -53 -153 -80 -218 -278 -177 -540
l12 -74 45 -14 c63 -19 236 -10 317 15 147 48 238 146 278 300 15 59 19 212 7
293 l-7 45 -80 17 c-76 16 -145 19 -210 11z m185 -113 c25 -15 19 -199 -8
-275 -47 -129 -181 -205 -361 -205 -31 0 -62 4 -69 9 -7 4 -15 38 -19 80 l-6
71 44 -20 c85 -38 165 -19 222 52 31 38 45 104 33 152 -8 31 -52 84 -90 107
l-29 18 34 9 c44 13 230 14 249 2z"/>
<path d="M2110 1344 c-58 -8 -122 -19 -143 -25 -34 -9 -37 -12 -25 -27 109
-140 264 -313 284 -318 23 -6 24 -9 24 -95 0 -82 1 -89 20 -89 18 0 20 7 20
85 0 81 1 86 24 94 21 9 94 87 186 201 19 24 52 63 73 88 47 55 46 56 -84 77
-144 23 -262 26 -379 9z"/>
</g>
</svg>
